<svg width="200" height="200" viewBox="0 0 200 200" fill="none" xmlns="http://www.w3.org/2000/svg">
<g clip-path="url(#clip0_507_3611)">
<path d="M99.8636 3.96191C46.7093 3.96191 3.61719 47.0096 3.61719 100.111C3.61719 153.214 46.7093 196.258 99.8636 196.258C153.024 196.258 196.111 153.214 196.111 100.111C196.111 47.0131 153.024 3.96651 99.8624 3.96651L99.8636 3.96191ZM144.002 142.636C143.591 143.308 143.051 143.893 142.414 144.357C141.777 144.821 141.054 145.154 140.288 145.339C139.521 145.523 138.726 145.555 137.947 145.432C137.169 145.309 136.422 145.034 135.75 144.622C113.152 130.833 84.7042 127.71 51.2019 135.357C49.6506 135.709 48.0227 135.432 46.676 134.586C45.3293 133.739 44.3739 132.394 44.0199 130.844C43.8436 130.077 43.8205 129.283 43.9519 128.507C44.0834 127.73 44.3668 126.988 44.7859 126.321C45.205 125.655 45.7517 125.077 46.3945 124.622C47.0373 124.167 47.7637 123.843 48.5321 123.668C85.195 115.301 116.643 118.904 142.013 134.392C144.841 136.126 145.737 139.811 144.002 142.636ZM155.782 116.456C153.61 119.983 148.99 121.096 145.461 118.926C119.59 103.041 80.1541 98.44 49.5538 107.719C45.5853 108.917 41.3937 106.683 40.1893 102.725C39.6145 100.822 39.8186 98.7694 40.7566 97.0168C41.6947 95.2641 43.2902 93.9546 45.1934 93.3755C80.1472 82.7803 123.601 87.9126 153.311 106.151C156.839 108.321 157.954 112.935 155.782 116.456ZM156.793 89.1939C125.774 70.7879 74.5949 69.0955 44.9784 78.0752C40.2226 79.5161 35.1932 76.834 33.752 72.083C33.059 69.8004 33.3018 67.3363 34.4271 65.2325C35.5523 63.1287 37.4679 61.5575 39.7525 60.8644C73.7502 50.554 130.267 52.546 165.981 73.726C166.999 74.3275 167.888 75.1237 168.597 76.069C169.306 77.0143 169.822 78.0901 170.115 79.2349C170.407 80.3796 170.471 81.5707 170.302 82.74C170.133 83.9093 169.735 85.0338 169.13 86.0491C166.601 90.3225 161.062 91.7313 156.798 89.1939H156.793ZM265.472 92.721C248.853 88.7622 245.899 85.9837 245.899 80.1453C245.899 74.6296 251.094 70.9176 258.829 70.9176C266.322 70.9176 273.747 73.7363 281.539 79.5391C281.769 79.7148 282.068 79.7848 282.355 79.7389C282.5 79.7181 282.638 79.6681 282.763 79.5919C282.887 79.5157 282.995 79.4149 283.079 79.2957L291.193 67.8693C291.353 67.6427 291.421 67.3637 291.383 67.0889C291.344 66.8142 291.203 66.5644 290.986 66.3904C281.711 58.9584 271.276 55.3452 259.07 55.3452C241.129 55.3452 228.59 66.1023 228.59 81.4932C228.59 97.9979 239.405 103.842 258.093 108.353C273.988 112.012 276.677 115.078 276.677 120.557C276.677 126.631 271.253 130.408 262.518 130.408C252.818 130.408 244.899 127.136 236.049 119.489C235.829 119.303 235.545 119.208 235.256 119.225C234.958 119.248 234.693 119.386 234.509 119.604L225.407 130.419C225.028 130.879 225.074 131.545 225.51 131.935C235.808 141.12 248.474 145.965 262.15 145.965C281.482 145.965 293.975 135.414 293.975 119.076C294.009 105.29 285.746 97.6546 265.506 92.736L265.472 92.721ZM337.717 76.3484C329.339 76.3484 322.466 79.6459 316.788 86.4028V78.7974C316.789 78.5098 316.676 78.2335 316.474 78.0292C316.271 77.8249 315.996 77.7093 315.708 77.7078H300.824C300.227 77.7078 299.744 78.1969 299.744 78.7974V163.303C299.744 163.9 300.227 164.393 300.824 164.393H315.708C316.306 164.393 316.788 163.9 316.788 163.303V136.631C322.466 142.98 329.339 146.092 337.717 146.092C353.29 146.092 369.059 134.117 369.059 111.224C369.082 88.3259 353.313 76.3472 337.729 76.3472L337.717 76.3484ZM351.75 111.224C351.75 122.876 344.567 131.017 334.269 131.017C324.098 131.017 316.42 122.509 316.42 111.224C316.42 99.9372 324.098 91.4317 334.269 91.4317C344.395 91.4305 351.75 99.7535 351.75 111.224ZM409.457 76.3484C389.401 76.3484 373.69 91.775 373.69 111.473C373.69 130.959 389.298 146.218 409.216 146.218C429.34 146.218 445.097 130.844 445.097 111.224C445.097 91.6693 429.443 76.3507 409.457 76.3507V76.3484ZM409.457 131.131C398.791 131.131 390.746 122.566 390.746 111.218C390.746 99.8178 398.515 91.5453 409.216 91.5453C419.95 91.5453 428.041 100.107 428.041 111.467C428.041 122.865 420.226 131.131 409.457 131.131ZM487.92 77.7078H471.542V60.9838C471.543 60.8415 471.516 60.7004 471.462 60.5687C471.408 60.4369 471.328 60.3171 471.228 60.216C471.128 60.115 471.008 60.0346 470.877 59.9796C470.745 59.9246 470.605 59.8959 470.462 59.8953H455.579C454.981 59.8953 454.487 60.3845 454.487 60.9838V77.7078H447.338C446.74 77.7078 446.258 78.1969 446.258 78.7974V91.5729C446.258 92.1722 446.74 92.6625 447.338 92.6625H454.487V125.724C454.487 139.077 461.141 145.851 474.278 145.851C479.611 145.851 484.035 144.748 488.207 142.383C488.552 142.2 488.759 141.832 488.759 141.442V129.271C488.759 128.904 488.564 128.548 488.242 128.353C488.085 128.253 487.905 128.196 487.719 128.188C487.534 128.18 487.349 128.221 487.184 128.307C484.323 129.742 481.553 130.408 478.45 130.408C473.68 130.408 471.542 128.238 471.542 123.393V92.6682H487.92C488.518 92.6682 489 92.1791 489 91.5786V78.8043C489.005 78.6617 488.981 78.5197 488.929 78.3867C488.878 78.2538 488.799 78.1327 488.699 78.0309C488.6 77.929 488.48 77.8484 488.348 77.7941C488.216 77.7398 488.074 77.7127 487.932 77.7147L487.92 77.7078ZM544.972 77.7732V75.7192C544.972 69.6765 547.293 66.9817 552.488 66.9817C555.591 66.9817 558.085 67.5972 560.878 68.5272C561.223 68.6351 561.579 68.5811 561.855 68.3756C561.995 68.2747 562.109 68.1418 562.187 67.988C562.265 67.8342 562.305 67.6639 562.303 67.4915V54.9652C562.306 54.7312 562.232 54.5028 562.093 54.3144C561.954 54.1261 561.758 53.9882 561.533 53.9215C558.591 53.0455 554.821 52.1465 549.167 52.1465C535.432 52.1465 528.157 59.8781 528.157 74.4975V77.6435H521.009C520.411 77.6435 519.917 78.1326 519.917 78.7319V91.5729C519.917 92.1722 520.411 92.6625 521.009 92.6625H528.157V143.646C528.157 144.255 528.651 144.737 529.249 144.737H544.121C544.73 144.737 545.213 144.255 545.213 143.646V92.6659H559.108L580.393 143.646C577.98 148.997 575.601 150.064 572.36 150.064C569.739 150.064 566.969 149.284 564.154 147.734C563.887 147.599 563.579 147.57 563.292 147.653C563.004 147.757 562.763 147.963 562.648 148.239L557.602 159.296C557.361 159.824 557.568 160.432 558.074 160.708C563.338 163.555 568.084 164.772 573.957 164.772C584.944 164.772 591.024 159.651 596.369 145.897L622.182 79.2612C622.249 79.0965 622.274 78.9176 622.254 78.7408C622.234 78.5641 622.169 78.3952 622.067 78.2497C621.97 78.1041 621.838 77.9847 621.684 77.9022C621.53 77.8196 621.357 77.7765 621.182 77.7767H605.689C605.218 77.7767 604.804 78.0718 604.655 78.5069L588.783 123.783L571.406 78.477C571.328 78.2717 571.19 78.0948 571.009 77.9697C570.828 77.8447 570.614 77.7774 570.394 77.7767H544.972V77.7732ZM511.895 77.7078H497.011C496.413 77.7078 495.919 78.1969 495.919 78.7974V143.646C495.919 144.255 496.413 144.737 497.011 144.737H511.895C512.492 144.737 512.986 144.255 512.986 143.646V78.802C512.987 78.6587 512.959 78.5168 512.904 78.3844C512.849 78.252 512.769 78.1317 512.667 78.0304C512.566 77.9292 512.445 77.849 512.313 77.7944C512.18 77.7398 512.038 77.7119 511.895 77.7124V77.7078ZM504.539 48.1784C498.643 48.1784 493.862 52.9456 493.862 58.8344C493.862 60.2351 494.138 61.6221 494.675 62.9161C495.211 64.2101 495.998 65.3859 496.989 66.3763C497.981 67.3667 499.158 68.1522 500.453 68.6881C501.749 69.224 503.137 69.4998 504.539 69.4996C510.435 69.4996 515.205 64.7268 515.205 58.8344C515.205 52.9467 510.423 48.1784 504.539 48.1784ZM634.893 98.5594C629.009 98.5594 624.423 93.8347 624.423 88.0974C624.423 82.3601 629.066 77.5815 634.951 77.5815C640.835 77.5815 645.421 82.305 645.421 88.0377C645.421 93.775 640.778 98.5594 634.893 98.5594ZM634.951 78.6217C629.584 78.6217 625.526 82.8814 625.526 88.0974C625.526 93.3112 629.561 97.5134 634.893 97.5134C640.261 97.5134 644.318 93.2572 644.318 88.0377C644.318 82.824 640.284 78.6217 634.951 78.6217ZM637.272 89.1135L640.238 93.2561H637.732L635.066 89.4557H632.779V93.2561H630.687V82.2751H635.583C638.146 82.2751 639.824 83.5806 639.824 85.7782C639.835 87.5785 638.789 88.6784 637.284 89.1135H637.272ZM635.502 84.1593H632.779V87.6324H635.502C636.859 87.6324 637.675 86.9676 637.675 85.8941C637.675 84.7643 636.859 84.1593 635.502 84.1593Z" fill="#1ED760"/>
</g>
<defs>
<clipPath id="clip0_507_3611">
<rect width="194" height="194" fill="white" transform="translate(3 3)"/>
</clipPath>
</defs>
</svg>
